<?xml version="1.0" encoding="UTF-8"?><svg width="487px" height="120px" viewBox="0 0 487 120" version="1.1" xmlns="http://www.w3.org/2000/svg" xmlns:xlink="http://www.w3.org/1999/xlink"><title>smohan.net</title><desc>smohan.net Created with Sketch.</desc><defs></defs><g id="Page-1" stroke="none" stroke-width="1" fill="none" fill-rule="evenodd"><g id="smohan.net"><path d="M36.8992767,96.3529412 C33.7289331,96.3529412 30.5585895,95.9117647 27.476311,95.1176471 C12.5052441,91.0588235 1.67323689,78 0.528390597,62.4705882 L0.440325497,59.6470588 C0.440325497,44.2058824 6.34068716,29.5588235 16.9965642,18.4411765 C23.7775769,11.3823529 31.9676311,6.17647059 41.0383363,3.08823529 C32.2318264,8.11764706 25.5388788,16.5 22.8088608,26.6470588 C20.1669078,36.5294118 21.4878843,46.8529412 26.59566,55.7647059 C31.7034358,64.6764706 39.9815552,70.9411765 49.8448463,73.5882353 C53.103255,74.4705882 56.4497288,74.9117647 59.7962025,74.9117647 C63.4949367,74.9117647 67.1936709,74.3823529 70.80434,73.3235294 C65.3443038,87.1764706 51.8703436,96.3529412 36.8992767,96.3529412 L36.8992767,96.3529412 Z" id="Shape"></path><path d="M36.8992767,96.3529412 C33.7289331,96.3529412 30.5585895,95.9117647 27.476311,95.1176471 C12.5052441,91.0588235 1.67323689,78 0.528390597,62.4705882 L0.440325497,59.6470588 C0.440325497,44.2058824 6.34068716,29.5588235 16.9965642,18.4411765 C23.7775769,11.3823529 31.9676311,6.17647059 41.0383363,3.08823529 C32.2318264,8.11764706 25.5388788,16.5 22.8088608,26.6470588 C20.1669078,36.5294118 21.4878843,46.8529412 26.59566,55.7647059 C31.7034358,64.6764706 39.9815552,70.9411765 49.8448463,73.5882353 C53.103255,74.4705882 56.4497288,74.9117647 59.7962025,74.9117647 C63.4949367,74.9117647 67.1936709,74.3823529 70.80434,73.3235294 C65.3443038,87.1764706 51.8703436,96.3529412 36.8992767,96.3529412 L36.8992767,96.3529412 Z" id="Shape"></path><path d="M36.8992767,96.3529412 C33.7289331,96.3529412 30.5585895,95.9117647 27.476311,95.1176471 C12.5052441,91.0588235 1.67323689,78 0.528390597,62.4705882 L0.440325497,59.6470588 C0.440325497,44.2058824 6.34068716,29.5588235 16.9965642,18.4411765 C23.7775769,11.3823529 31.9676311,6.17647059 41.0383363,3.08823529 C32.2318264,8.11764706 25.5388788,16.5 22.8088608,26.6470588 C20.1669078,36.5294118 21.4878843,46.8529412 26.59566,55.7647059 C31.7034358,64.6764706 39.9815552,70.9411765 49.8448463,73.5882353 C53.103255,74.4705882 56.4497288,74.9117647 59.7962025,74.9117647 C63.4949367,74.9117647 67.1936709,74.3823529 70.80434,73.3235294 C65.3443038,87.1764706 51.8703436,96.3529412 36.8992767,96.3529412 L36.8992767,96.3529412 Z" id="Shape" fill="#4EBBAA"></path><path d="M140.287703,0.441176471 L140.287703,0.441176471 C138.350271,0.264705882 136.500904,0.176470588 134.563472,0.176470588 C118.623689,0.176470588 103.828752,6.35294118 92.5564195,17.6470588 C81.3721519,28.8529412 75.29566,43.8529412 75.29566,59.8235294 L75.29566,59.8235294 C75.29566,63.3529412 74.7672694,66.6176471 73.8866184,69.7058824 C69.3952984,86.4705882 54.1600362,98.1176471 36.8992767,98.1176471 C33.5528029,98.1176471 30.2063291,97.6764706 26.9479204,96.7941176 C16.820434,94.0588235 8.45424955,87.3529412 3.52260398,78.6176471 C6.51681736,87.7058824 11.7126582,95.9117647 18.8459313,102.705882 C29.9421338,113.382353 44.5609403,119.205882 59.9723327,119.205882 C75.8240506,119.205882 90.7951175,113.029412 102.06745,101.823529 C113.339783,90.6176471 119.50434,75.7058824 119.592405,59.8235294 L119.592405,59.4705882 L119.592405,59.2058824 L119.592405,58.8529412 C119.50434,57.4411765 119.50434,56.2941176 119.50434,55.0588235 C119.50434,36.5294118 127.782459,19.1470588 142.137071,7.41176471 L142.225136,7.32352941 C142.489331,7.14705882 142.753526,6.88235294 143.017722,6.70588235 L143.105787,6.61764706 L143.105787,6.61764706 C143.722242,5.91176471 144.074503,5.02941176 144.074503,4.05882353 C143.898373,2.11764706 142.313201,0.441176471 140.287703,0.441176471 L140.287703,0.441176471 Z" id="Shape" fill="#A4CB2F"></path><path d="M46.2341772,70.5 C38.1321881,67.3235294 31.4392405,61.3235294 27.3001808,53.5588235 C22.984991,45.4411765 22.0162749,36 24.3940325,27.0882353 C28.4450271,12.0882353 41.4786618,1.23529412 56.9781193,0.0882352941 L59.7962025,0 C66.5772152,0 73.2701627,1.14705882 79.6108499,3.44117647 C85.4231465,5.47058824 90.7951175,8.38235294 95.7267631,12.1764706 C92.3802893,14.9117647 89.3860759,18 86.6560579,21.3529412 C85.4231465,21.2647059 84.10217,21.1764706 82.8692586,21.1764706 C65.6084991,21.1764706 50.3732369,32.9117647 45.8819168,49.5882353 C44.0325497,56.5588235 44.1206148,63.7058824 46.2341772,70.5 L46.2341772,70.5 Z" id="Shape" fill="#6EAC2E"></path><path d="M181.14991,45.4411765 L162.215913,38.7352941 C160.454611,38.1176471 159.309765,37.4117647 158.605244,36.7058824 C157.636528,35.7352941 157.196203,34.3235294 157.196203,32.9117647 C157.196203,30.3529412 158.164919,28.6764706 160.190416,27.8823529 C161.511392,27.3529412 163.448825,27 166.002712,27 L189.251899,27 L189.251899,18.6176471 L167.499819,18.6176471 C154.201989,18.7058824 147.597107,23.3823529 147.597107,32.7352941 C147.597107,35.4705882 148.389693,38.1176471 149.974864,40.3235294 C151.560036,42.5294118 154.290054,44.2941176 158.252984,45.7058824 L178.507957,52.8529412 C181.766365,54 183.351537,55.9411765 183.351537,58.5882353 C183.351537,59.9117647 182.999277,61.1470588 182.206691,62.2058824 C181.50217,63.1764706 180.445389,63.8823529 179.300542,64.1470588 C178.507957,64.2352941 175.777939,64.4117647 171.110488,64.5882353 L149.622604,64.5882353 L149.622604,72.9705882 L175.073418,72.9705882 C181.061844,72.9705882 185.553165,71.8235294 188.371248,69.5294118 C191.541591,66.8823529 193.214828,63.3529412 193.214828,59.0294118 C193.214828,55.4117647 192.069982,52.4117647 189.692224,49.9411765 C188.018987,48.3529412 185.200904,46.8529412 181.14991,45.4411765 L181.14991,45.4411765 Z" id="Shape" fill="#434546"></path><path d="M263.138517,20.3823529 C259.792043,18.4411765 256.005244,17.4705882 252.13038,17.4705882 C248.255515,17.4705882 244.909042,18.2647059 242.179024,19.9411765 C239.449005,21.6176471 236.983183,24.1764706 235.04575,27.5294118 C231.170886,20.8235294 225.35859,17.3823529 217.608861,17.3823529 C213.645931,17.3823529 209.859132,18.3529412 206.424593,20.2941176 C202.725859,22.5 199.819711,25.8529412 198.410669,29.9117647 C197.530018,32.2941176 197.089693,35.7352941 197.089693,40.2352941 L197.089693,72.9705882 L206.688788,72.9705882 L206.688788,41.7352941 C206.688788,40.0588235 206.688788,38.3823529 206.864919,36.7058824 C207.129114,34.9411765 207.74557,33.3529412 208.626221,31.8529412 C210.915913,28.5882353 214.174322,26.9117647 218.313382,26.9117647 C221.835986,26.8235294 225.270524,28.4117647 227.472152,31.2352941 C229.233454,33.4411765 230.114105,36.7941176 230.114105,41.2941176 L230.114105,73.0588235 L239.713201,73.0588235 L239.713201,42.2647059 C239.713201,40.5 239.713201,38.6470588 239.977396,36.7941176 C240.241591,35.0294118 240.946112,33.2647059 242.002893,31.7647059 C244.292586,28.5 247.462929,26.9117647 251.425859,26.9117647 C255.124593,26.9117647 258.118807,28.2352941 260.496564,30.8823529 C262.345931,33.0882353 263.314647,36.1764706 263.314647,40.4117647 L263.314647,73.0588235 L272.913743,73.0588235 L272.913743,39.3529412 C272.825678,30.3529412 269.567269,24 263.138517,20.3823529 L263.138517,20.3823529 Z" id="Shape" fill="#434546"></path><path d="M380.265099,25.2352941 C376.30217,19.9411765 370.930199,17.3823529 363.973056,17.3823529 C356.575588,17.3823529 351.027486,20.4705882 347.240687,26.6470588 L347.240687,2.02941176 C344.070344,2.02941176 340.9,1.94117647 337.641591,1.85294118 L337.641591,72.8823529 L347.240687,72.8823529 L347.240687,45.5294118 C347.240687,40.5 348.121338,36.6176471 349.794575,33.7941176 C352.700723,29.1176471 356.751718,26.7352941 362.035624,26.7352941 C366.174684,26.7352941 369.521157,28.2352941 371.98698,31.1470588 C374.012477,33.6176471 375.069259,37.6764706 375.069259,43.3235294 L375.069259,72.7941176 L384.668354,72.7941176 L384.668354,41.0294118 C384.668354,34.3235294 383.171248,29.0294118 380.265099,25.2352941 L380.265099,25.2352941 Z" id="Shape" fill="#434546"></path><path d="M306.202351,16.6764706 C298.276492,16.6764706 291.495479,19.4117647 285.771248,24.8823529 C283.129295,27.5294118 280.927667,30.6176471 279.606691,34.0588235 C278.109584,37.5882353 277.405063,41.2941176 277.405063,45.0882353 C277.405063,52.8529412 280.135081,59.4705882 285.771248,65.0294118 C291.407414,70.5882353 298.100362,73.4117647 306.026221,73.4117647 C313.95208,73.4117647 320.556962,70.6764706 326.105063,65.1176471 C331.653165,59.5588235 334.383183,52.8529412 334.383183,45.1764706 C334.383183,37.5 331.653165,30.7941176 326.193128,25.2352941 C320.556962,19.5882353 313.95208,16.6764706 306.202351,16.6764706 L306.202351,16.6764706 Z M318.97179,58.4117647 C315.625316,62.0294118 310.869801,64.0588235 305.938156,63.9705882 C301.00651,64.0588235 296.250995,62.1176471 292.816456,58.5882353 C289.117722,55.0588235 287.092224,50.1176471 287.180289,45 C287.092224,39.8823529 289.117722,35.0294118 292.816456,31.5882353 C296.427125,28.0588235 300.65425,26.2941176 305.585895,26.2941176 C310.869801,26.2941176 315.273056,28.1470588 318.883725,31.9411765 C322.406329,35.4705882 324.343761,40.3235294 324.255696,45.3529412 C324.431826,50.2058824 322.494394,54.9705882 318.97179,58.4117647 L318.97179,58.4117647 Z" id="Shape" fill="#434546"></path><path d="M481.275769,30.3529412 C479.338336,25.8529412 476.432188,22.5 472.557324,20.2058824 C468.682459,18 464.279204,16.8529412 459.787884,16.9411765 C452.390416,16.9411765 446.578119,19.4117647 442.086799,24.3529412 C441.206148,25.3235294 440.325497,26.4705882 439.709042,27.6176471 C437.683544,24.9705882 435.217722,22.7647059 432.311573,21 C427.908318,18.2647059 422.712477,16.8529412 417.516637,16.8529412 C409.590778,16.8529412 402.7217,19.7647059 397.085533,25.5 C391.713562,30.9705882 388.983544,37.5882353 388.983544,45.3529412 C388.983544,52.8529412 391.537432,59.4705882 396.645208,64.9411765 C402.017179,70.6764706 408.622061,73.5882353 416.635986,73.5882353 C420.33472,73.6764706 424.033454,72.7941176 427.291863,71.1176471 C429.053165,70.1470588 430.726401,69 432.311573,67.6764706 L432.311573,57.5294118 C430.726401,58.9411765 429.053165,60.2647059 427.291863,61.5 C424.297649,63.2647059 420.951175,64.2352941 417.516637,64.1470588 C412.496926,64.2352941 407.74141,62.2058824 404.306872,58.5882353 C400.784268,55.0588235 398.934901,50.2941176 399.022966,45.3529412 C399.022966,40.1470588 400.872333,35.6470588 404.571067,31.9411765 C407.917541,28.3235294 412.584991,26.2941176 417.516637,26.3823529 C423.328933,26.3823529 428.084448,28.5882353 431.518987,32.8235294 C434.689331,36.7941176 436.362568,42 436.362568,48.6176471 L436.362568,72.4411765 L436.362568,72.4411765 L436.362568,72.4411765 L445.961664,72.4411765 L445.961664,44.4705882 C445.961664,39.0882353 446.842315,35.1176471 448.515552,32.4705882 C451.157505,28.4117647 455.032369,26.3823529 459.964014,26.3823529 C464.455335,26.3823529 468.154069,28.1470588 470.796022,31.5882353 C472.909584,34.2352941 473.8783,38.3823529 473.8783,43.8529412 L473.8783,72.4411765 L483.477396,72.4411765 L483.477396,41.5588235 C483.477396,37.7647059 482.68481,33.9705882 481.275769,30.3529412 L481.275769,30.3529412 Z" id="Shape" fill="#434546"></path><path d="M157.020072,105.441176 C155.170705,105.441176 153.673599,105 152.528752,104.117647 C151.207776,103.058824 150.41519,101.382353 150.503255,99.7058824 C150.41519,98.0294118 151.119711,96.3529412 152.440687,95.2941176 C153.585533,94.3235294 155.08264,93.7941176 157.108137,93.7941176 L158.869439,93.7941176 L158.869439,91.2352941 L156.403617,91.2352941 C154.994575,91.1470588 153.585533,91.4117647 152.264557,91.9411765 C150.679385,92.6470588 149.446474,93.8823529 148.565823,95.3823529 C146.980651,98.0294118 146.980651,101.205882 148.477758,103.852941 C149.358409,105.441176 150.679385,106.676471 152.352622,107.382353 C153.409403,107.823529 154.818445,108 156.579747,108 L158.781374,108 L158.781374,105.352941 L157.020072,105.352941 L157.020072,105.441176 Z M163.184629,100.411765 C163.184629,99.5294118 163.272694,98.6470588 163.448825,97.7647059 C163.71302,96.7941176 164.153345,95.9117647 164.857866,95.2058824 C165.826582,94.1470588 167.235624,93.7058824 168.996926,93.7058824 L169.877577,93.7058824 L169.877577,90.8823529 C169.349186,90.7941176 168.996926,90.7941176 168.732731,90.7941176 C167.323689,90.7941176 166.002712,91.2352941 164.945931,92.0294118 C164.24141,92.5588235 163.71302,93.3529412 163.272694,94.1470588 L163.272694,91.2352941 L160.278481,91.2352941 L160.278481,108.088235 L163.272694,108.088235 L163.184629,100.411765 L163.184629,100.411765 L163.184629,100.411765 Z M181.942495,99.7941176 C181.942495,100.676471 181.85443,101.558824 181.6783,102.441176 C181.414105,103.323529 180.885714,104.117647 180.093128,104.647059 C179.388608,105.176471 178.507957,105.441176 177.627306,105.441176 C176.306329,105.441176 175.073418,104.823529 174.280832,103.764706 C173.664376,102.970588 173.312116,101.647059 173.312116,100.058824 L173.312116,91.2352941 L170.317902,91.2352941 L170.317902,100.852941 C170.317902,104.029412 171.462749,106.235294 173.752441,107.470588 C174.897288,108.088235 176.218264,108.441176 177.627306,108.441176 C179.652803,108.529412 181.590235,107.735294 182.999277,106.235294 C184.232188,104.911765 184.848644,103.147059 184.848644,100.852941 L184.848644,91.2352941 L181.85443,91.2352941 L181.85443,99.7941176 L181.942495,99.7941176 Z M190.48481,91.1470588 L187.490597,91.1470588 L187.490597,108 L190.48481,108 L190.48481,91.1470588 L190.48481,91.1470588 Z M187.402532,84.7058824 C186.962206,85.0588235 186.786076,85.6764706 186.786076,86.2058824 C186.786076,86.8235294 186.962206,87.3529412 187.402532,87.7058824 C187.842857,88.1470588 188.371248,88.3235294 188.899638,88.3235294 C189.516094,88.3235294 190.044485,88.0588235 190.396745,87.7058824 C190.837071,87.3529412 191.013201,86.7352941 191.013201,86.2058824 C191.013201,85.5882353 190.837071,85.0588235 190.396745,84.7058824 C190.044485,84.2647059 189.428029,84.0882353 188.899638,84.0882353 C188.371248,84.0882353 187.842857,84.3529412 187.402532,84.7058824 L187.402532,84.7058824 L187.402532,84.7058824 Z M200.700362,108 C202.549729,108 203.95877,107.647059 204.839421,106.941176 C205.808137,106.147059 206.336528,104.911765 206.336528,103.676471 C206.336528,102.617647 205.984268,101.647059 205.279747,100.852941 C204.487161,100.235294 203.60651,99.7058824 202.637794,99.4411765 L196.737432,97.3235294 C196.297107,97.2352941 195.944846,96.9705882 195.592586,96.7058824 C195.328391,96.3529412 195.15226,96 195.15226,95.5588235 C195.064195,94.8529412 195.504521,94.2352941 196.120976,93.9705882 C196.737432,93.7941176 197.265823,93.7058824 197.882278,93.7058824 L205.103617,93.7058824 L205.103617,91.0588235 L198.322604,91.0588235 C194.183544,91.0588235 192.158047,92.5588235 192.158047,95.4705882 C192.158047,96.3529412 192.422242,97.1470588 192.862568,97.8529412 C193.390958,98.5588235 194.183544,99.0882353 195.416456,99.5294118 L201.669078,101.735294 C202.637794,102.088235 203.166184,102.705882 203.166184,103.5 C203.166184,103.941176 203.078119,104.294118 202.813924,104.647059 C202.637794,104.911765 202.285533,105.176471 201.933273,105.264706 C201.669078,105.264706 200.876492,105.352941 199.379385,105.441176 L192.686438,105.441176 L192.686438,108 L200.700362,108 L200.700362,108 L200.700362,108 Z M211.003978,91.1470588 L208.009765,91.1470588 L208.009765,108 L211.003978,108 L211.003978,91.1470588 L211.003978,91.1470588 Z M207.9217,84.7058824 C207.481374,85.1470588 207.305244,85.6764706 207.305244,86.2058824 C207.305244,86.8235294 207.481374,87.3529412 207.9217,87.7058824 C208.362025,88.1470588 208.890416,88.3235294 209.418807,88.3235294 C210.035262,88.3235294 210.563653,88.0588235 210.915913,87.7058824 C211.356239,87.3529412 211.532369,86.7352941 211.532369,86.2058824 C211.532369,85.5882353 211.356239,85.0588235 210.915913,84.7058824 C210.563653,84.2647059 209.947197,84.0882353 209.418807,84.0882353 C208.890416,84.0882353 208.27396,84.3529412 207.9217,84.7058824 L207.9217,84.7058824 L207.9217,84.7058824 Z M228.176673,98.4705882 C228.176673,97.2352941 228.000542,96.0882353 227.560217,94.9411765 C227.031826,93.6176471 226.06311,92.5588235 224.830199,91.8529412 C223.597288,91.1470588 222.276311,90.7941176 220.867269,90.7941176 C218.577577,90.7941176 216.72821,91.5882353 215.407233,93.0882353 C214.174322,94.4117647 213.645931,96.2647059 213.645931,98.4705882 L213.645931,108 L216.640145,108 L216.640145,99.3529412 C216.640145,97.6764706 216.90434,96.4411765 217.432731,95.6470588 C218.225316,94.4117647 219.546293,93.7058824 220.955335,93.7941176 C222.276311,93.7941176 223.509222,94.3235294 224.301808,95.3823529 C224.918264,96.1764706 225.270524,97.5 225.270524,99.1764706 L225.270524,108 L228.264738,108 L228.264738,98.4705882 L228.176673,98.4705882 L228.176673,98.4705882 Z M238.744485,116.382353 C241.210307,116.382353 243.235805,115.676471 244.909042,114.176471 C246.494213,112.676471 247.286799,110.558824 247.286799,107.647059 L247.286799,100.323529 C247.286799,96.4411765 245.877758,93.7058824 243.059675,92.0294118 C241.738698,91.2352941 240.153526,90.7941176 238.568354,90.7941176 C236.190597,90.7941176 233.900904,91.6764706 232.315732,93.4411765 C230.642495,95.1176471 229.761844,97.3235294 229.761844,99.7058824 C229.761844,101.911765 230.55443,104.117647 232.139602,105.705882 C232.932188,106.588235 233.900904,107.205882 234.957685,107.647059 C236.014467,108.088235 237.159313,108.352941 238.216094,108.352941 C239.18481,108.352941 240.153526,108.176471 241.034177,107.735294 C241.738698,107.382353 242.443219,106.941176 243.14774,106.411765 L243.14774,103.323529 C242.619349,103.764706 242.090958,104.205882 241.562568,104.558824 C240.681917,105.088235 239.625136,105.441176 238.568354,105.352941 C236.983183,105.352941 235.486076,104.735294 234.429295,103.588235 C233.372514,102.529412 232.844123,101.117647 232.844123,99.6176471 C232.844123,98.0294118 233.372514,96.5294118 234.51736,95.4705882 C235.574141,94.3235294 236.983183,93.7058824 238.568354,93.7058824 C240.153526,93.7058824 241.738698,94.3235294 242.795479,95.5588235 C243.85226,96.7058824 244.380651,98.3823529 244.380651,100.676471 L244.380651,107.029412 C244.380651,107.735294 244.380651,108.441176 244.292586,109.147059 C244.204521,110.029412 243.85226,110.823529 243.235805,111.529412 C242.090958,112.941176 240.417722,113.647059 238.216094,113.647059 C236.454792,113.647059 234.781555,113.294118 233.108318,112.764706 L232.844123,115.411765 C234.69349,116.029412 236.718987,116.294118 238.744485,116.382353 L238.744485,116.382353 L238.744485,116.382353 L238.744485,116.382353 Z M260.232369,91.1470588 L257.238156,91.1470588 L257.238156,108 L260.232369,108 L260.232369,91.1470588 L260.232369,91.1470588 Z M257.15009,84.7058824 C256.709765,85.0588235 256.533635,85.6764706 256.533635,86.2058824 C256.533635,86.8235294 256.709765,87.3529412 257.15009,87.7058824 C257.590416,88.1470588 258.118807,88.3235294 258.647197,88.3235294 C259.263653,88.3235294 259.792043,88.0588235 260.144304,87.7058824 C260.584629,87.3529412 260.760759,86.7352941 260.760759,86.2058824 C260.760759,85.5882353 260.584629,85.0588235 260.144304,84.7058824 C259.792043,84.2647059 259.175588,84.0882353 258.647197,84.0882353 C258.118807,84.0882353 257.590416,84.3529412 257.15009,84.7058824 L257.15009,84.7058824 L257.15009,84.7058824 L257.15009,84.7058824 Z M277.405063,98.4705882 C277.405063,97.2352941 277.228933,96.0882353 276.788608,94.9411765 C276.260217,93.6176471 275.291501,92.5588235 274.05859,91.8529412 C272.825678,91.1470588 271.504702,90.7941176 270.09566,90.7941176 C267.805967,90.7941176 265.9566,91.5882353 264.635624,93.0882353 C263.402712,94.4117647 262.874322,96.2647059 262.874322,98.4705882 L262.874322,108 L265.868535,108 L265.868535,99.3529412 C265.868535,97.6764706 266.132731,96.4411765 266.661121,95.6470588 C267.453707,94.4117647 268.774684,93.7058824 270.183725,93.7941176 C271.504702,93.7941176 272.737613,94.3235294 273.530199,95.3823529 C274.146655,96.1764706 274.498915,97.5 274.498915,99.1764706 L274.498915,108 L277.493128,108 L277.405063,98.4705882 L277.405063,98.4705882 L277.405063,98.4705882 Z M295.722604,93.7941176 L295.722604,91.1470588 L290.350633,91.1470588 L290.350633,86.0294118 L287.35642,86.0294118 L287.35642,101.735294 C287.35642,103.5 287.620615,104.823529 288.149005,105.794118 C288.765461,106.764706 289.734177,107.470588 290.879024,107.647059 C291.935805,107.911765 292.992586,108 294.137432,108 L295.722604,108 L295.722604,105.352941 L294.225497,105.352941 C293.344846,105.441176 292.55226,105.264706 291.671609,105 C291.143219,104.735294 290.702893,104.294118 290.526763,103.764706 C290.350633,103.058824 290.262568,102.441176 290.262568,101.735294 L290.262568,93.8823529 L295.722604,93.8823529 L295.722604,93.7941176 L295.722604,93.7941176 Z M311.398192,98.1176471 C311.398192,96 310.957866,94.4117647 310.077215,93.1764706 C308.932369,91.5882353 306.994937,90.7058824 305.057505,90.7058824 C302.943942,90.6176471 300.918445,91.7647059 299.861664,93.5294118 L299.861664,83.2941176 L296.86745,83.2941176 L296.86745,108.088235 L299.861664,108.088235 L299.861664,99.6176471 C299.861664,98.0294118 300.125859,96.8823529 300.65425,96 C301.446835,94.5882353 302.855877,93.7941176 304.441049,93.7941176 C305.585895,93.7058824 306.730741,94.2352941 307.523327,95.2058824 C308.139783,96 308.492043,97.2352941 308.492043,99 L308.492043,108.176471 L311.486257,108.176471 L311.398192,98.1176471 L311.398192,98.1176471 L311.398192,98.1176471 Z M325.400542,104.735294 C324.431826,105.352941 323.28698,105.705882 322.054069,105.705882 C320.468897,105.705882 318.883725,105 317.826944,103.852941 C316.682098,102.617647 316.065642,101.029412 316.065642,99.3529412 C316.065642,97.7647059 316.682098,96.1764706 317.826944,95.1176471 C318.883725,94.0588235 320.292767,93.5294118 321.701808,93.5294118 C322.494394,93.5294118 323.28698,93.7058824 323.991501,93.9705882 C324.696022,94.2352941 325.224412,94.6764706 325.664738,95.2058824 L317.474684,100.676471 L318.707595,102.882353 L329.451537,95.8235294 C329.011212,95.0294118 328.482821,94.2352941 327.866365,93.5294118 C326.281193,91.7647059 323.991501,90.7941176 321.613743,90.7941176 C316.858228,90.7941176 312.895298,94.5882353 312.895298,99.3529412 L312.895298,99.5294118 C312.895298,101.735294 313.687884,103.941176 315.273056,105.529412 C316.946293,107.382353 319.324051,108.352941 321.789873,108.352941 C324.079566,108.441176 326.281193,107.558824 327.95443,105.970588 C329.099277,104.911765 329.891863,103.411765 330.420253,101.382353 L328.306691,100.235294 C327.866365,102.352941 326.897649,103.852941 325.400542,104.735294 L325.400542,104.735294 L325.400542,104.735294 L325.400542,104.735294 Z M347.769078,105.441176 C345.919711,105.441176 344.422604,105 343.277758,104.117647 C341.956781,103.058824 341.164195,101.382353 341.25226,99.7058824 C341.164195,98.0294118 341.868716,96.3529412 343.189693,95.2941176 C344.334539,94.3235294 345.831646,93.7941176 347.857143,93.7941176 L349.618445,93.7941176 L349.618445,91.2352941 L347.152622,91.2352941 C345.74358,91.1470588 344.334539,91.4117647 343.013562,91.9411765 C341.428391,92.6470588 340.195479,93.8823529 339.314828,95.3823529 C337.729656,98.0294118 337.729656,101.205882 339.226763,103.852941 C340.107414,105.441176 341.428391,106.676471 343.101627,107.382353 C344.158409,107.823529 345.56745,108 347.328752,108 L349.53038,108 L349.53038,105.352941 L347.769078,105.352941 L347.769078,105.441176 L347.769078,105.441176 Z M352.700723,93.3529412 C351.908137,94.1470588 351.203617,95.1176471 350.763291,96.1764706 C350.322966,97.2352941 350.05877,98.3823529 350.05877,99.6176471 C350.05877,101.911765 350.939421,104.205882 352.612658,105.794118 C354.285895,107.470588 356.575588,108.441176 358.86528,108.352941 C361.243038,108.441176 363.444665,107.470588 365.117902,105.794118 C366.791139,104.205882 367.67179,101.911765 367.67179,99.6176471 C367.67179,97.3235294 366.791139,95.0294118 365.117902,93.4411765 C363.532731,91.7647059 361.331103,90.7941176 358.953345,90.7941176 C356.663653,90.7941176 354.37396,91.6764706 352.700723,93.3529412 L352.700723,93.3529412 L352.700723,93.3529412 L352.700723,93.3529412 Z M362.916275,95.4705882 C363.973056,96.6176471 364.589512,98.1176471 364.589512,99.6176471 C364.589512,101.117647 363.973056,102.617647 362.916275,103.676471 C361.859494,104.823529 360.450452,105.441176 358.86528,105.352941 C357.368174,105.352941 355.871067,104.735294 354.814286,103.676471 C353.669439,102.617647 353.052984,101.029412 353.052984,99.4411765 C353.052984,97.8529412 353.669439,96.3529412 354.814286,95.2941176 C355.871067,94.2352941 357.280108,93.6176471 358.777215,93.6176471 C360.362387,93.7058824 361.859494,94.3235294 362.916275,95.4705882 L362.916275,95.4705882 L362.916275,95.4705882 L362.916275,95.4705882 Z M383.083183,83.2941176 L383.083183,98.2941176 C383.083183,100.323529 382.730922,101.911765 381.938336,102.970588 C380.881555,104.558824 379.120253,105.441176 377.270886,105.441176 C375.685714,105.441176 374.188608,104.823529 373.131826,103.588235 C372.075045,102.529412 371.546655,101.029412 371.546655,99.5294118 C371.546655,97.9411765 372.075045,96.4411765 373.219892,95.3823529 C374.276673,94.3235294 375.773779,93.7058824 377.270886,93.7058824 C378.327667,93.7058824 379.384448,94.0588235 380.353165,94.5882353 C380.881555,94.9411765 381.409946,95.3823529 381.850271,95.8235294 L381.850271,92.6470588 C380.529295,91.5 378.767993,90.8823529 377.006691,90.8823529 C375.861844,90.8823529 374.805063,91.1470588 373.748282,91.5882353 C372.691501,92.0294118 371.722785,92.6470588 370.930199,93.5294118 C369.345027,95.1176471 368.376311,97.3235294 368.464376,99.6176471 C368.464376,101.911765 369.256962,104.117647 370.842134,105.705882 C374.188608,109.235294 379.824774,109.411765 383.347378,105.970588 C383.523508,105.794118 383.611573,105.705882 383.787703,105.529412 C385.28481,103.852941 386.077396,101.647059 386.077396,98.9117647 L386.077396,83.2941176 L383.083183,83.2941176 L383.083183,83.2941176 L383.083183,83.2941176 Z M399.903617,104.735294 C398.934901,105.352941 397.790054,105.705882 396.557143,105.705882 C394.971971,105.705882 393.386799,105 392.330018,103.852941 C391.185172,102.617647 390.568716,101.029412 390.568716,99.3529412 C390.568716,97.7647059 391.185172,96.1764706 392.330018,95.1176471 C393.386799,94.0588235 394.795841,93.5294118 396.204882,93.5294118 C396.997468,93.5294118 397.790054,93.7058824 398.494575,93.9705882 C399.199096,94.2352941 399.727486,94.6764706 400.167812,95.2058824 L391.977758,100.676471 L393.210669,102.882353 L403.954611,95.8235294 C403.514286,95.0294118 402.985895,94.2352941 402.369439,93.5294118 C400.784268,91.7647059 398.494575,90.7941176 396.116817,90.7941176 C391.361302,90.7941176 387.398373,94.5882353 387.398373,99.3529412 L387.398373,99.5294118 C387.398373,101.735294 388.190958,103.941176 389.77613,105.529412 C391.449367,107.382353 393.827125,108.352941 396.292948,108.352941 C398.58264,108.441176 400.784268,107.558824 402.457505,105.970588 C403.602351,104.911765 404.394937,103.411765 404.923327,101.382353 L402.809765,100.235294 C402.369439,102.352941 401.400723,103.852941 399.903617,104.735294 L399.903617,104.735294 L399.903617,104.735294 L399.903617,104.735294 Z M415.226944,93.3529412 C414.434358,94.1470588 413.729837,95.1176471 413.289512,96.1764706 C412.849186,97.2352941 412.584991,98.3823529 412.584991,99.6176471 C412.584991,101.911765 413.465642,104.205882 415.138879,105.794118 C416.812116,107.470588 419.101808,108.441176 421.391501,108.352941 C423.769259,108.441176 425.970886,107.470588 427.644123,105.794118 C429.31736,104.205882 430.198011,101.911765 430.198011,99.6176471 C430.198011,97.3235294 429.31736,95.0294118 427.644123,93.4411765 C426.058951,91.7647059 423.857324,90.7941176 421.479566,90.7941176 C419.189873,90.7941176 416.900181,91.6764706 415.226944,93.3529412 L415.226944,93.3529412 L415.226944,93.3529412 Z M425.530561,95.4705882 C426.587342,96.6176471 427.203797,98.1176471 427.203797,99.6176471 C427.203797,101.117647 426.587342,102.617647 425.530561,103.676471 C424.473779,104.823529 423.064738,105.441176 421.479566,105.352941 C419.982459,105.352941 418.485353,104.735294 417.428571,103.676471 C416.283725,102.617647 415.667269,101.029412 415.667269,99.4411765 C415.667269,97.8529412 416.283725,96.3529412 417.428571,95.2941176 C418.485353,94.2352941 419.894394,93.6176471 421.391501,93.6176471 C422.976673,93.7058824 424.473779,94.3235294 425.530561,95.4705882 L425.530561,95.4705882 L425.530561,95.4705882 L425.530561,95.4705882 Z M435.041591,93.7941176 L441.294213,93.7941176 L441.294213,91.1470588 L435.041591,91.1470588 L435.041591,89.8235294 C435.041591,87 436.450633,85.6764706 439.356781,85.6764706 L441.206148,85.6764706 L441.206148,83.1176471 L438.740325,83.1176471 C436.626763,83.1176471 434.953526,83.6470588 433.720615,84.7941176 C432.575769,85.9411765 432.047378,87.5294118 432.047378,89.8235294 L432.047378,107.911765 L435.041591,107.911765 L435.041591,93.7941176 L435.041591,93.7941176 Z M451.95009,83.2941176 L448.955877,83.2941176 L448.955877,108.088235 L451.95009,108.088235 L451.95009,83.2941176 L451.95009,83.2941176 Z M457.586257,91.1470588 L454.592043,91.1470588 L454.592043,108 L457.586257,108 L457.586257,91.1470588 L457.586257,91.1470588 Z M454.503978,84.7058824 C454.063653,85.0588235 453.887523,85.6764706 453.887523,86.2058824 C453.887523,86.8235294 454.063653,87.3529412 454.503978,87.7058824 C454.944304,88.1470588 455.472694,88.3235294 456.001085,88.3235294 C456.617541,88.3235294 457.145931,88.0588235 457.498192,87.7058824 C457.938517,87.3529412 458.114647,86.7352941 458.114647,86.2058824 C458.114647,85.5882353 457.938517,85.0588235 457.498192,84.7058824 C457.145931,84.2647059 456.529476,84.0882353 456.001085,84.0882353 C455.472694,84.0882353 454.944304,84.3529412 454.503978,84.7058824 L454.503978,84.7058824 L454.503978,84.7058824 L454.503978,84.7058824 Z M463.310488,93.7941176 L469.56311,93.7941176 L469.56311,91.1470588 L463.310488,91.1470588 L463.310488,89.8235294 C463.310488,87 464.71953,85.6764706 467.625678,85.6764706 L469.475045,85.6764706 L469.475045,83.1176471 L467.009222,83.1176471 C464.89566,83.1176471 463.222423,83.6470588 461.989512,84.7941176 C460.844665,85.9411765 460.316275,87.5294118 460.316275,89.8235294 L460.316275,107.911765 L463.310488,107.911765 L463.310488,93.7941176 L463.310488,93.7941176 L463.310488,93.7941176 Z M481.275769,104.735294 C480.307052,105.352941 479.162206,105.705882 477.929295,105.705882 C476.344123,105.705882 474.758951,105 473.70217,103.852941 C472.557324,102.617647 471.940868,101.029412 471.940868,99.3529412 C471.940868,97.7647059 472.557324,96.1764706 473.70217,95.1176471 C474.758951,94.0588235 476.167993,93.5294118 477.577034,93.5294118 C478.36962,93.5294118 479.162206,93.7058824 479.866727,93.9705882 C480.571248,94.2352941 481.099638,94.6764706 481.539964,95.2058824 L473.34991,100.676471 L474.582821,102.882353 L485.326763,95.8235294 C484.886438,95.0294118 484.358047,94.2352941 483.741591,93.5294118 C482.15642,91.7647059 479.866727,90.7941176 477.488969,90.7941176 C472.733454,90.7941176 468.770524,94.5882353 468.770524,99.3529412 L468.770524,99.5294118 C468.770524,101.735294 469.56311,103.941176 471.148282,105.529412 C472.821519,107.382353 475.199277,108.352941 477.665099,108.352941 C479.954792,108.441176 482.15642,107.558824 483.829656,105.970588 C484.974503,104.911765 485.767089,103.411765 486.295479,101.382353 L484.181917,100.235294 C483.741591,102.352941 482.68481,103.852941 481.275769,104.735294 L481.275769,104.735294 L481.275769,104.735294 L481.275769,104.735294 Z" id="cruising_in_the_code_of_life" fill="#636566"></path></g></g></svg>